<svg version="1.2" xmlns="http://www.w3.org/2000/svg" viewBox="0 0 6400 6400" width="100" height="100">
	<title>logo-svg</title>
	<style>
		.s0 { fill: #ffffff } 
		.s1 { fill: #000000 } 
	</style>
	<g>
		<path id="форма 1" fill-rule="evenodd" class="s0" d="m3199.5 6400c-1732.3 0-3132.5-1400.2-3132.5-3132.5 0-1732.3 1400.2-3132.5 3132.5-3132.5 1732.3 0 3132.5 1400.2 3132.5 3132.5 0 1732.3-1400.2 3132.5-3132.5 3132.5z"/>
		<path class="s1" d="m2322.5 5312c-109-11-234.5-48-344-102-196-96.5-331-248-377-422.5-11.5-44.5-13-59.5-13-135 0.5-75.5 2-90.5 13-134.5 17.5-65 37.5-109 81.5-175.5 71-108.5 195-208.5 332.5-267.5 39-17 96.5-38 122-45 8.5-2.5 27.5-7.5 42.5-11.5 173-46.5 435.5-47 595-1 15 4.5 35.5 10 45 12.5 70 18 186.5 70 245.5 110.5 16 10.5 32 21 35.5 22 5.5 2 6-270 5-1411-1-1062.5 0-1423.5 4-1451.5 7-44.5 24-72 59-96 23.5-16.5 23.5-16.5 146-16 129.5 1 237.5 11.5 332.5 32.5 25 5.5 65.5 14.5 90 20 25 5.5 53 13.5 62.5 17 9.5 3.5 33.5 12.5 52.5 19 78 28 92.5 34 154 63 225.5 107.5 422.5 288.5 556.5 513 37 62 93.5 174.5 108.5 216 4 10.5 16.5 45 28 76.5 29.5 81 70 227 70.5 253.5 0 6 2 16 4.5 22.5 7 18 15 58 21 101.5 3 22 8.5 63.5 12.5 92.5 4 29 9.5 94 12 145 2.5 51 6 122.5 8 159 5.5 103.5-16.5 420.5-33 477-18 61.5-91 103.5-153 88.5-62-15-93-49.5-109.5-122-13-58.5-69.5-178.5-119-252.5-103.5-154-265-283.5-471-376-56-25.5-189.5-72.5-235-83.5-13.5-3.5-43-10.5-65-16-76-19.5-185.5-37.5-242.5-41-22.5-1-22.5-1-25 1069-3 1169.5-1 1092.5-31.5 1172.5-59.5 158.5-179.5 283.5-358.5 373.5-61.5 31-86 40.5-164.5 64.5-116 35-140.5 38-318 39.5-88 1-169 0.5-180-0.5zm634.5-442.5c47-13 86-57 91-103 5-41-6.5-124-25.5-180.5-60.5-183-203.5-318.5-390-371-11-3-46.5-9-79-13-46.5-5.5-64-5.5-82.5-1-48 11.5-83 47-95 96.5-10.5 43.5 11.5 92.5 54 120.5 21 14 66.5 26.5 97.5 27 56 0.5 134 36.5 183 85 57 56.5 80 106 92.5 199.5 8 59.5 13 74 34.5 99.5 31 37 77 52.5 119.5 40.5z"/>
	</g>
	<g>
	</g>
</svg>