<svg xmlns="http://www.w3.org/2000/svg" viewBox="0 0 160.91 91.8"><defs><style>.cls-1{fill-rule:evenodd;}</style></defs><g id="Слой_2" data-name="Слой 2"><g id="Var2"><g id="Иконки"><path id="vk_alt" class="cls-1" d="M78.73,91.42h9.62s2.9-.32,4.39-1.92,1.32-4.23,1.32-4.23-.19-12.9,5.8-14.8,13.49,12.47,21.52,18c6.08,4.17,10.7,3.26,10.7,3.26l21.49-.3s11.24-.7,5.91-9.53c-.44-.73-3.1-6.54-16-18.49C130,50.89,131.83,52.91,148.06,31.28,158,18.1,161.9,10.06,160.66,6.62c-1.17-3.28-8.44-2.42-8.44-2.42L128,4.35a5.53,5.53,0,0,0-3.12.55,6.8,6.8,0,0,0-2.14,2.6,141.17,141.17,0,0,1-8.93,18.87C103.05,44.66,98.74,45.63,97,44.49c-4.09-2.65-3.07-10.63-3.07-16.31,0-17.73,2.69-25.12-5.24-27C86,.51,84.11.09,77.38,0,68.75-.07,61.44.05,57.3,2.07c-2.75,1.35-4.87,4.36-3.58,4.53,1.6.21,5.22,1,7.14,3.59,2.48,3.37,2.39,11,2.39,11S64.68,42,59.93,44.6c-3.27,1.78-7.74-1.85-17.35-18.45A153.68,153.68,0,0,1,34,8.25a7.21,7.21,0,0,0-2-2.7,10,10,0,0,0-3.71-1.5l-23,.15S1.79,4.3.53,5.8C-.6,7.14.44,9.9.44,9.9S18.43,52,38.82,73.23C57.51,92.69,78.73,91.42,78.73,91.42Z"/></g></g></g></svg>